<svg xmlns="http://www.w3.org/2000/svg" width="20" height="20" viewBox="0 0 20 20">
  <g id="vuesax_bold_task-square" data-name="vuesax/bold/task-square" transform="translate(-491 -316)">
    <g id="task-square" transform="translate(491 316)">
      <path id="Vector" d="M11.88,0H4.864A4.468,4.468,0,0,0,0,4.864V11.88a4.468,4.468,0,0,0,4.864,4.864H11.88a4.468,4.468,0,0,0,4.864-4.864V4.864A4.468,4.468,0,0,0,11.88,0ZM6.673,10.8,4.789,12.684a.621.621,0,0,1-.444.184.607.607,0,0,1-.444-.184l-.628-.628a.617.617,0,0,1,0-.887.632.632,0,0,1,.887,0l.184.184,1.44-1.44a.628.628,0,0,1,.887.887Zm0-5.861L4.789,6.823a.621.621,0,0,1-.444.184A.607.607,0,0,1,3.9,6.823L3.274,6.2a.617.617,0,0,1,0-.887.632.632,0,0,1,.887,0l.184.184,1.44-1.44a.628.628,0,0,1,.887.887Zm6.355,7.3h-4.4a.628.628,0,0,1,0-1.256h4.4a.628.628,0,0,1,0,1.256Zm0-5.861h-4.4a.628.628,0,0,1,0-1.256h4.4a.628.628,0,0,1,0,1.256Z" transform="translate(1.628 1.628)" fill="#43D8C9"/>
      <path id="Vector-2" data-name="Vector" d="M0,0H20V20H0Z" transform="translate(20 20) rotate(180)" fill="none" opacity="0"/>
    </g>
  </g>
</svg>
