<svg width="21" height="21" viewBox="0 0 21 21" fill="none" xmlns="http://www.w3.org/2000/svg">
<g clip-path="url(#clip0_1072_2)">
<path d="M11.043 12.75L12.621 14.327C12.78 14.4853 12.9947 14.5749 13.2191 14.5766C13.4435 14.5783 13.6596 14.4919 13.821 14.336C13.915 14.242 14.009 14.157 14.102 14.063C14.9653 13.1949 15.7616 12.2625 16.484 11.274C17.1469 10.3693 17.7076 9.39406 18.156 8.366C18.5385 7.48533 18.744 6.53802 18.761 5.57801C18.7646 5.01477 18.6604 4.45605 18.454 3.93201C18.2371 3.3896 17.902 2.90242 17.473 2.50601C17.2459 2.26095 16.972 2.06391 16.6674 1.9265C16.3629 1.78909 16.0339 1.71412 15.7 1.70601C15.461 1.7051 15.2249 1.75772 15.009 1.86001C14.7787 1.96444 14.5813 2.1297 14.438 2.33801L12.461 5.12601C12.324 5.31182 12.2095 5.51322 12.12 5.72601C12.046 5.88968 12.0056 6.06648 12.001 6.24601C12.0035 6.46035 12.0654 6.66979 12.18 6.85101C12.3116 7.07305 12.4724 7.27651 12.658 7.45601L13.306 8.13C13.351 8.17432 13.3864 8.22751 13.4098 8.28621C13.4332 8.34492 13.4442 8.40784 13.442 8.471C13.442 8.53852 13.4333 8.60576 13.416 8.67101C13.39 8.73901 13.365 8.79001 13.348 8.84201C13.119 9.23044 12.8535 9.5961 12.555 9.934C12.171 10.377 11.762 10.834 11.318 11.281C11.233 11.366 11.139 11.452 11.054 11.537C10.9733 11.6157 10.9089 11.7097 10.8647 11.8134C10.8204 11.9171 10.7971 12.0285 10.7961 12.1412C10.7951 12.254 10.8163 12.3658 10.8587 12.4703C10.9011 12.5747 10.9637 12.6698 11.043 12.75Z" fill="#43D8C9"/>
<path d="M1.73097 15.631C1.73195 15.8782 1.77524 16.1234 1.85897 16.356C1.8838 16.4241 1.91217 16.4909 1.94397 16.556C2.0929 16.8733 2.28839 17.1665 2.52397 17.426C2.90848 17.863 3.38717 18.207 3.92397 18.432C3.93297 18.432 3.94097 18.441 3.94997 18.441C4.46985 18.6519 5.02593 18.7593 5.58697 18.757C6.54619 18.7391 7.49185 18.5272 8.36697 18.134C9.40473 17.6852 10.3883 17.1202 11.299 16.45C11.632 16.203 11.964 15.955 12.28 15.691L9.49097 12.903C9.29168 13.0557 9.08069 13.1924 8.85997 13.312C8.81697 13.329 8.76597 13.355 8.70597 13.38C8.63767 13.4044 8.56546 13.4159 8.49297 13.414C8.42775 13.4155 8.36294 13.4034 8.30268 13.3784C8.24241 13.3535 8.18802 13.3162 8.14297 13.269L7.49497 12.629C7.3149 12.4402 7.10761 12.2795 6.87997 12.152C6.70068 12.0373 6.49279 11.9753 6.27997 11.973C6.10102 11.9755 5.92432 12.0132 5.75997 12.084C5.54894 12.1739 5.34785 12.2855 5.15997 12.417L2.33697 14.417C2.13214 14.551 1.96952 14.7403 1.86797 14.963C1.77894 15.1746 1.73239 15.4015 1.73097 15.631V15.631Z" fill="#43D8C9"/>
</g>
<defs>
<clipPath id="clip0_1072_2">
<rect width="20.467" height="20.467" fill="white" transform="matrix(-1 0 0 1 20.467 0)"/>
</clipPath>
</defs>
</svg>
