<svg xmlns="http://www.w3.org/2000/svg" viewBox="0 0 256 256"><circle cx="128" cy="128" r="127" fill="#38B29A"/><path fill="#090606" d="M108.7 57.9c0 3.6 0 7.3 1 10.8 1 3.7 3.1 7 5 10.4 7.2 13 11.3 27.7 11.6 42.5.1 4.5-.2 9-.4 13.5-.5 8.4-.9 16.9-1.4 25.3-.1 2.6-.3 5.2-1.2 7.7-.8 2.1-2.2 3.9-3.5 5.7-3.8 5-7.5 10.1-11.3 15.1-13.5-15.9-21.5-36-25-56.6s-2.6-41.7.2-62.4c.5-3.4 1-6.9 1.9-10.2 4.2-15.1 16.6-27 30.9-33.3 1.2 2 .1 4.6-1 6.7-2.3 4.4-4.8 8.8-5.9 13.6-.9 3.7-.9 7.5-.9 11.2z"/><path fill="#F2CD56" d="M66.4 226.7c14.9-16.5 30-33 47.6-46.6 1.9-1.4 3.8-2.9 5.6-4.5 4.4-3.7 8.3-7.9 9.3-13.5-9 3.2-18.1 6.5-25.7 12.3-5.6 4.3-10.2 9.9-14.6 15.4-9.7 12.1-19.5 24.2-29.3 36.2-1.5 1.9-3.1 3.8-4.5 5.7 1.6 1.1 3.1 2.2 4.7 3.2 2.1-2.8 4.5-5.6 6.9-8.2z"/><path fill="#6B7C9A" d="M164.8 1.3c0 .3.1.6.1 1-.1-.4-.1-.7-.1-1z"/><path fill="#D3AA6F" d="M164.3 137.1c-1-5-2.1-10-3.1-14.9-.7-3.3-1.8-7.2-4.7-8.5-3.2-1.4-6.6.9-9.3 3.1-5.5 4.3-10.9 8.6-16.4 12.9-3.5 2.8-7.3 5.6-11.7 5.6 1.6 13.5 1.9 27.2 1.1 40.8 2.3 1.3 5.7 2.5 10.4 2.5 7.4-3.9 15.1-7.2 22.1-11.7 5.5-3.6 10.8-8.4 12.4-15 1.2-4.9.2-10-.8-14.8z"/><path fill="#EEC98F" d="M146.6 135.6c3.8-2.6 7.5-5.2 10.6-8.5 8.3-9.2 9.8-22.7 9.7-35.1-.1-5.8-.4-11.7-1.6-17.4-1.8-8.8-5.6-17-9.4-25.1-.6-1.2-1.1-2.5-2-3.5-1-1.2-2.4-2-3.9-2.8-8.2-4.3-17.6-6.4-26.8-5.9-.6 0-1.2.1-1.7.3-.6.2-1 .7-1.5 1-1.3 1-2.8 1.5-4.3 2.1-8.5 3.3-17.7 8.2-20 17-.6 2.5-.6 5.2-.6 7.8.1 9 .2 18 .2 26.9.1 6.6.1 13.3 2.1 19.6 3.1 9.9 10.4 17.7 17.5 25.2 1.5 1.6 3 3.1 4.8 4.3 4.1 2.5 9.4 2.5 14 1 4.9-1.4 8.9-4.1 12.9-6.9z"/><path fill="#090606" d="M91.8 63c-.4-1.8-.8-3.6-.7-5.4.1-3 1.6-5.7 3.4-8.1 4.8-6.3 12.1-10.5 19.9-11.6.6 4.3-2.8 8.1-6.4 10.5-3.6 2.4-7.8 4.3-10.2 7.9-1.1 1.7-1.8 3.6-2.4 5.5-.8 2.3-1.5 4.5-2.3 6.8-.4-1.9-.9-3.7-1.3-5.6z"/><path fill="#BF4028" d="M66.4 226.7c-2.4 2.6-4.8 5.4-6.9 8.3 6.4 4.1 13.2 7.7 20.3 10.6 4.3-10.9 11.8-22.2 19-29.9 12.2-12.9 19.6-19.9 30-34.4.7-.9 1.3-1.8 2-2.8h-.3c-3.8 0-7.7-.9-10.9-2.9-1.8 1.6-3.8 3-5.6 4.5-17.6 13.5-32.6 30.1-47.6 46.6z"/><path fill="#F2CD56" d="M198.9 171.1c-3.5-3.8-8-6.5-12.5-9.1-3-1.8-6.1-3.6-9.1-5.4-5-5.9-9.5-12.2-9.5-19.7-12.9 11.7-26.3 27.4-36.9 41.7-.7.9-1.4 1.8-2 2.8-10.4 14.4-17.8 21.4-30 34.4-7.2 7.7-14.7 19-19 29.9 14.9 6.1 31.1 9.5 48.2 9.5 30.9 0 59.2-11 81.3-29.4-.1-5.3-.1-10.6-.2-15.9-.3-13.8-1-28.8-10.3-38.8z"/><path fill="#090606" d="M154.6 135.8c.6 3.6 1.3 7.3 3.2 10.3 2.2 3.4 5.8 5.6 9.3 7.6 4.5 2.7 9 5.4 13.7 7.6 6.4 3 13.8 5.5 17.5 11.6-16.9-34.8-10.8-76.5-23.2-113.1-1.1-3.4-2.4-6.7-4.1-9.8-8.3-15.9-25.8-26.6-43.7-26.7-4.4 0-9 .6-12.6 3.1s-5.9 7.3-4.4 11.5c1.4 4 5.7 6.2 9.9 7.1 4.1.9 8.5.9 12.4 2.4 7.5 2.9 12.2 10.7 13.9 18.6 1.8 7.9 1.2 16.1 1.5 24.1.4 9.1 1.9 18.1 3.4 27.1 1.1 6.3 2.1 12.5 3.2 18.6z"/></svg>