<svg id="svgexport-6_-_2022-08-13T212131.955" data-name="svgexport-6 - 2022-08-13T212131.955" xmlns="http://www.w3.org/2000/svg" width="18.067" height="18.066" viewBox="0 0 18.067 18.066">
  <path id="Path_6567" data-name="Path 6567" d="M13.175,0H4.889A4.9,4.9,0,0,0,0,4.89v8.286a4.9,4.9,0,0,0,4.89,4.89h8.286a4.9,4.9,0,0,0,4.89-4.89V4.89A4.9,4.9,0,0,0,13.175,0ZM9.032,13.973a4.94,4.94,0,1,1,4.94-4.94A4.946,4.946,0,0,1,9.032,13.973ZM14.09,5.258A1.46,1.46,0,1,1,15.55,3.8,1.461,1.461,0,0,1,14.09,5.258Zm0,0" transform="translate(0.001 0)" fill="#fff"/>
  <path id="Path_6568" data-name="Path 6568" d="M149.9,146.02a3.881,3.881,0,1,0,3.881,3.881A3.885,3.885,0,0,0,149.9,146.02Zm0,0" transform="translate(-140.867 -140.867)" fill="#fff"/>
  <path id="Path_6569" data-name="Path 6569" d="M388.393,96.3a.4.4,0,1,0,.4.4A.4.4,0,0,0,388.393,96.3Zm0,0" transform="translate(-374.302 -92.903)" fill="#fff"/>
</svg>
