<svg xmlns="http://www.w3.org/2000/svg" width="18.234" height="18.234" viewBox="0 0 18.234 18.234">
  <g id="svgexport-6_72_" data-name="svgexport-6 (72)" transform="translate(-10 -10)">
    <g id="_x31_0.Linkedin" transform="translate(10 10)">
      <path id="Path_737" data-name="Path 737" d="M50.084,47.768V41.089c0-3.282-.707-5.789-4.536-5.789a3.958,3.958,0,0,0-3.578,1.96h-.046V35.6H38.3V47.768h3.784v-6.04c0-1.6.3-3.123,2.256-3.123,1.937,0,1.96,1.8,1.96,3.214v5.926h3.784Z" transform="translate(-31.85 -29.533)" fill="#fff"/>
      <path id="Path_738" data-name="Path 738" d="M11.3,36.6h3.784V48.771H11.3Z" transform="translate(-11.004 -30.537)" fill="#fff"/>
      <path id="Path_739" data-name="Path 739" d="M12.188,10a2.2,2.2,0,1,0,2.188,2.188A2.189,2.189,0,0,0,12.188,10Z" transform="translate(-10 -10)" fill="#fff"/>
    </g>
  </g>
</svg>
