<svg xmlns="http://www.w3.org/2000/svg" width="129.743" height="22.301" viewBox="0 0 129.743 22.301">
  <g id="rating" transform="translate(-26 -0.304)">
    <g id="star-with-five-points" transform="translate(26 0.305)">
      <path id="Path_778" data-name="Path 778" d="M23.227,9.151C22.87,8.034,20.9,7.779,18.825,7.5A9.2,9.2,0,0,1,16,6.9a9.22,9.22,0,0,1-1.429-2.516c-.883-1.9-1.719-3.695-2.888-3.7l-.022,0c-1.159.02-2,1.791-2.9,3.672a9.383,9.383,0,0,1-1.45,2.5,9.351,9.351,0,0,1-2.836.58c-2.078.253-4.046.49-4.413,1.6s1.069,2.476,2.591,3.918a9.339,9.339,0,0,1,1.93,2.155,9.275,9.275,0,0,1-.324,2.874c-.4,2.055-.784,4,.158,4.7a1.367,1.367,0,0,0,.843.236,10.126,10.126,0,0,0,3.683-1.489,9.24,9.24,0,0,1,2.645-1.171,9.158,9.158,0,0,1,2.635,1.2c1.368.759,2.783,1.546,3.747,1.53a1.312,1.312,0,0,0,.767-.233c.948-.683.587-2.628.206-4.691a9.45,9.45,0,0,1-.3-2.879A9.416,9.416,0,0,1,20.6,13.04C22.131,11.612,23.581,10.267,23.227,9.151Z" transform="translate(0 -0.678)" fill="#ffc107"/>
    </g>
    <g id="star-of-favorites-outline" transform="translate(130.501 0)" style="isolation: isolate">
      <path id="Path_1922" data-name="Path 1922" d="M23.227,9.151C22.87,8.034,20.9,7.779,18.825,7.5A9.2,9.2,0,0,1,16,6.9a9.22,9.22,0,0,1-1.429-2.516c-.883-1.9-1.719-3.695-2.888-3.7l-.022,0c-1.159.02-2,1.791-2.9,3.672a9.383,9.383,0,0,1-1.45,2.5,9.351,9.351,0,0,1-2.836.58c-2.078.253-4.046.49-4.413,1.6s1.069,2.476,2.591,3.918a9.339,9.339,0,0,1,1.93,2.155,9.275,9.275,0,0,1-.324,2.874c-.4,2.055-.784,4,.158,4.7a1.367,1.367,0,0,0,.843.236,10.126,10.126,0,0,0,3.683-1.489,9.24,9.24,0,0,1,2.645-1.171,9.158,9.158,0,0,1,2.635,1.2c1.368.759,2.783,1.546,3.747,1.53a1.312,1.312,0,0,0,.767-.233c.948-.683.587-2.628.206-4.691a9.45,9.45,0,0,1-.3-2.879A9.416,9.416,0,0,1,20.6,13.04C22.131,11.612,23.581,10.267,23.227,9.151Z" transform="translate(-77.885 -0.374)" fill="#ffc107"/>
    </g>
    <g id="star-with-five-points-2" data-name="star-with-five-points" transform="translate(132.463 0.304)">
      <path id="Path_778-2" data-name="Path 778" d="M23.227,9.151C22.87,8.034,20.9,7.779,18.825,7.5A9.2,9.2,0,0,1,16,6.9a9.22,9.22,0,0,1-1.429-2.516c-.883-1.9-1.719-3.695-2.888-3.7l-.022,0c-1.159.02-2,1.791-2.9,3.672a9.383,9.383,0,0,1-1.45,2.5,9.351,9.351,0,0,1-2.836.58c-2.078.253-4.046.49-4.413,1.6s1.069,2.476,2.591,3.918a9.339,9.339,0,0,1,1.93,2.155,9.275,9.275,0,0,1-.324,2.874c-.4,2.055-.784,4,.158,4.7a1.367,1.367,0,0,0,.843.236,10.126,10.126,0,0,0,3.683-1.489,9.24,9.24,0,0,1,2.645-1.171,9.158,9.158,0,0,1,2.635,1.2c1.368.759,2.783,1.546,3.747,1.53a1.312,1.312,0,0,0,.767-.233c.948-.683.587-2.628.206-4.691a9.45,9.45,0,0,1-.3-2.879A9.416,9.416,0,0,1,20.6,13.04C22.131,11.612,23.581,10.267,23.227,9.151Z" transform="translate(0 -0.678)" fill="#ffc107"/>
    </g>
    <g id="star-with-five-points-3" data-name="star-with-five-points" transform="translate(79.231 0.305)">
      <path id="Path_778-3" data-name="Path 778" d="M23.227,9.151C22.87,8.034,20.9,7.779,18.825,7.5A9.2,9.2,0,0,1,16,6.9a9.22,9.22,0,0,1-1.429-2.516c-.883-1.9-1.719-3.695-2.888-3.7l-.022,0c-1.159.02-2,1.791-2.9,3.672a9.383,9.383,0,0,1-1.45,2.5,9.351,9.351,0,0,1-2.836.58c-2.078.253-4.046.49-4.413,1.6s1.069,2.476,2.591,3.918a9.339,9.339,0,0,1,1.93,2.155,9.275,9.275,0,0,1-.324,2.874c-.4,2.055-.784,4,.158,4.7a1.367,1.367,0,0,0,.843.236,10.126,10.126,0,0,0,3.683-1.489,9.24,9.24,0,0,1,2.645-1.171,9.158,9.158,0,0,1,2.635,1.2c1.368.759,2.783,1.546,3.747,1.53a1.312,1.312,0,0,0,.767-.233c.948-.683.587-2.628.206-4.691a9.45,9.45,0,0,1-.3-2.879A9.416,9.416,0,0,1,20.6,13.04C22.131,11.612,23.581,10.267,23.227,9.151Z" transform="translate(0 -0.678)" fill="#ffc107"/>
    </g>
    <g id="star-with-five-points-4" data-name="star-with-five-points" transform="translate(105.847 0.305)">
      <path id="Path_778-4" data-name="Path 778" d="M23.227,9.151C22.87,8.034,20.9,7.779,18.825,7.5A9.2,9.2,0,0,1,16,6.9a9.22,9.22,0,0,1-1.429-2.516c-.883-1.9-1.719-3.695-2.888-3.7l-.022,0c-1.159.02-2,1.791-2.9,3.672a9.383,9.383,0,0,1-1.45,2.5,9.351,9.351,0,0,1-2.836.58c-2.078.253-4.046.49-4.413,1.6s1.069,2.476,2.591,3.918a9.339,9.339,0,0,1,1.93,2.155,9.275,9.275,0,0,1-.324,2.874c-.4,2.055-.784,4,.158,4.7a1.367,1.367,0,0,0,.843.236,10.126,10.126,0,0,0,3.683-1.489,9.24,9.24,0,0,1,2.645-1.171,9.158,9.158,0,0,1,2.635,1.2c1.368.759,2.783,1.546,3.747,1.53a1.312,1.312,0,0,0,.767-.233c.948-.683.587-2.628.206-4.691a9.45,9.45,0,0,1-.3-2.879A9.416,9.416,0,0,1,20.6,13.04C22.131,11.612,23.581,10.267,23.227,9.151Z" transform="translate(0 -0.678)" fill="#ffc107"/>
    </g>
  </g>
</svg>
