<svg xmlns="http://www.w3.org/2000/svg" width="19.144" height="15.555" viewBox="0 0 19.144 15.555">
  <path id="twitter" d="M19.144,49.841a8.183,8.183,0,0,1-2.261.62,3.9,3.9,0,0,0,1.727-2.169,7.844,7.844,0,0,1-2.489.95,3.924,3.924,0,0,0-6.789,2.684,4.041,4.041,0,0,0,.091.895,11.109,11.109,0,0,1-8.09-4.105,3.926,3.926,0,0,0,1.206,5.246,3.876,3.876,0,0,1-1.773-.483v.043A3.943,3.943,0,0,0,3.91,57.377a3.918,3.918,0,0,1-1.029.129,3.471,3.471,0,0,1-.743-.067,3.962,3.962,0,0,0,3.667,2.734A7.886,7.886,0,0,1,.939,61.847,7.353,7.353,0,0,1,0,61.793a11.049,11.049,0,0,0,6.021,1.761A11.094,11.094,0,0,0,17.191,52.386c0-.173-.006-.341-.014-.507A7.83,7.83,0,0,0,19.144,49.841Z" transform="translate(0 -48)" fill="#fff"/>
</svg>
