<svg xmlns="http://www.w3.org/2000/svg" xmlns:xlink="http://www.w3.org/1999/xlink" width="113.247" height="100.978" viewBox="0 0 113.247 100.978">
  <defs>
    <linearGradient id="linear-gradient" y1="0.504" x2="1" y2="0.504" gradientUnits="objectBoundingBox">
      <stop offset="0" stop-color="#80d8ff"/>
      <stop offset="1" stop-color="#ea80fc"/>
    </linearGradient>
  </defs>
  <g id="Group_1271" data-name="Group 1271" transform="translate(-688.463 -2394.875)">
    <path id="_654" data-name="654" d="M48.515,0H97.03a0,0,0,0,1,0,0V52.462a48.515,48.515,0,0,1-48.515,48.515h0A48.515,48.515,0,0,1,0,52.462V48.515A48.515,48.515,0,0,1,48.515,0Z" transform="translate(704.68 2394.875)" fill="#95389e" opacity="0.05"/>
    <path id="medical-report" d="M98.3,0H68.061a2.227,2.227,0,0,0-1.452.539L56.774,9A2.226,2.226,0,0,0,56,10.688V54.773A2.227,2.227,0,0,0,58.227,57H98.3a2.227,2.227,0,0,0,2.227-2.227V2.227A2.227,2.227,0,0,0,98.3,0ZM96.078,52.547H60.453V11.709l8.434-7.256H96.078ZM68.246,19.594a2.227,2.227,0,0,1,2.227-2.227h5.566V11.8a2.227,2.227,0,1,1,4.453,0v5.566h5.566a2.227,2.227,0,0,1,0,4.453H80.492v5.566a2.227,2.227,0,1,1-4.453,0V21.82H70.473A2.227,2.227,0,0,1,68.246,19.594ZM63.793,34.734V46.98a2.227,2.227,0,0,0,2.227,2.227H90.512a2.227,2.227,0,0,0,2.227-2.227V34.734a2.227,2.227,0,0,0-2.227-2.227H66.02A2.227,2.227,0,0,0,63.793,34.734Zm4.453,2.227H88.285v7.793H68.246Z" transform="translate(632.463 2415.573)" fill="url(#linear-gradient)"/>
  </g>
</svg>
