<svg xmlns="http://www.w3.org/2000/svg" xmlns:xlink="http://www.w3.org/1999/xlink" width="109.71" height="100.978" viewBox="0 0 109.71 100.978">
  <defs>
    <linearGradient id="linear-gradient" y1="0.504" x2="1" y2="0.504" gradientUnits="objectBoundingBox">
      <stop offset="0" stop-color="#80d8ff"/>
      <stop offset="1" stop-color="#ea80fc"/>
    </linearGradient>
  </defs>
  <g id="Group_1272" data-name="Group 1272" transform="translate(-304 -2394.875)">
    <path id="_654" data-name="654" d="M48.515,0H97.03a0,0,0,0,1,0,0V52.462a48.515,48.515,0,0,1-48.515,48.515h0A48.515,48.515,0,0,1,0,52.462V48.515A48.515,48.515,0,0,1,48.515,0Z" transform="translate(316.68 2394.875)" fill="#95389e" opacity="0.05"/>
    <path id="emergency-call" d="M36.847,37.09a2.351,2.351,0,0,0-3.325,0l-4.632,4.632c-4.825-.612-9.805-5.592-10.417-10.417L23.1,26.673a2.351,2.351,0,0,0,0-3.325L13.258,13.5a2.351,2.351,0,0,0-3.325,0L3.841,19.594a2.353,2.353,0,0,0-.634,1.16L.054,35.169a2.351,2.351,0,0,0,.634,2.165L22.86,59.506a2.351,2.351,0,0,0,2.165.634l14.415-3.152a2.351,2.351,0,0,0,1.16-.634l6.092-6.092a2.352,2.352,0,0,0,0-3.325Zm.916,15.451-12.486,2.73L4.923,34.918l2.73-12.486L11.6,18.49l6.521,6.521L14.4,28.732a2.352,2.352,0,0,0-.689,1.678c.052,7.991,8.084,16.026,16.078,16.078a2.341,2.341,0,0,0,1.678-.689l3.721-3.721L41.705,48.6ZM43.735,0a16.46,16.46,0,1,0,16.46,16.46A16.478,16.478,0,0,0,43.735,0Zm0,28.216A11.757,11.757,0,1,1,55.492,16.46,11.77,11.77,0,0,1,43.735,28.216ZM51.377,16.46a2.351,2.351,0,0,1-2.351,2.351H46.087V21.75a2.351,2.351,0,1,1-4.7,0V18.811H38.445a2.351,2.351,0,1,1,0-4.7h2.939V11.169a2.351,2.351,0,1,1,4.7,0v2.939h2.939A2.351,2.351,0,0,1,51.377,16.46Z" transform="translate(304 2416.369)" fill="url(#linear-gradient)"/>
  </g>
</svg>
